<?xml version="1.0" encoding="utf-8"?>
<!-- Generator: Adobe Illustrator 25.0.1, SVG Export Plug-In . SVG Version: 6.00 Build 0)  -->
<svg version="1.1" id="Capa_1" xmlns="http://www.w3.org/2000/svg" xmlns:xlink="http://www.w3.org/1999/xlink" x="0px" y="0px"
	 viewBox="0 0 191.5 55.4" style="enable-background:new 0 0 191.5 55.4;" xml:space="preserve">
<style type="text/css">
	.st0{fill:#FDFDFF;}
	.st1{fill:#DC9C2E;}
</style>
<path class="st0" d="M159.6,11.4c-2.3-0.2-4.4,0.5-6.3,1.8c-0.7,0.5-1.3,1-1.9,1.5c-1.4-2-3.2-3.4-5.6-3.4c-2.3,0-4.4,0.8-6.1,2.8
	c0-0.5,0-0.9,0-1.3c0-0.8-0.3-1.1-0.9-1.1c-2,0-4,0-5.9,0c-0.7,0-1,0.3-1,1.1c0,7,0,14.1,0,21.1c0,0.8,0.3,1.1,1,1.1
	c2,0,4.1,0,6.1,0c0.8,0,1-0.3,1-1.2c0-3.6,0-7.3,0-10.9c0-0.4,0-0.7,0-1.1c0.1-1.7,1-2.6,2.5-2.7c1.3-0.1,2.3,0.7,2.6,2
	c0.1,0.5,0.1,1,0.1,1.5c0,3.7,0,7.5,0,11.2c0,1,0.2,1.2,1.1,1.2c1.9,0,3.8,0,5.7,0c0.8,0,1.1-0.3,1.1-1.2c0-1.9,0-3.8,0-5.7
	c0-2,0-4,0-6c0-1.5,0.8-2.9,2.5-3c1.4-0.1,2.4,0.7,2.6,2.3c0.1,0.5,0.1,1,0.1,1.4c0,3.7,0,7.4,0,11.2c0,0.8,0.2,1.1,1,1.1
	c2.1,0,4.1,0,6.2,0c0.8,0,1-0.3,1-1.2c0-4.1,0-8.2,0-12.4c0-1.2-0.1-2.4-0.3-3.6C165.5,13.9,163.2,11.6,159.6,11.4L159.6,11.4z"/>
<path class="st0" d="M77.9,11.4c-6.2,0-12.5,0-18.7,0c-0.8,0-1.1,0.3-1.1,1.1c0,9.7,0,19.4,0,29.1c0,0.8,0.3,1.1,1.1,1.1
	c2.2,0,4.4,0,6.5,0c0.9,0,1.2-0.3,1.2-1.2c0-2.8,0-5.6,0-8.4v-0.5h2.2c2.3,0,4.6,0,7,0c0.9,0,1.2-0.3,1.2-1.2c0-2.1,0-4.1,0-6.2
	c0-0.8-0.3-1.1-1.1-1.1c-3,0-5.9,0-8.9,0h-0.4c0-1.2,0-2.4,0-3.5c0-0.3,0.1-0.5,0.4-0.5c3.5,0,7,0,10.6,0c0.8,0,1.1-0.2,1.1-1.1
	c0-2.2,0-4.4,0-6.6C78.9,11.6,78.6,11.4,77.9,11.4L77.9,11.4z"/>
<path class="st0" d="M191.1,18.9c-0.5-2.3-1.6-4.3-3.6-5.7c-1.9-1.3-3.9-1.7-6.1-1.8c-1.9-0.1-3.8,0-5.7,0.3c-1.7,0.3-3.4,0.8-5,1.6
	c-0.6,0.3-0.7,0.6-0.5,1.2c0,0.1,0.1,0.3,0.1,0.4c0.5,1.4,1,2.9,1.5,4.3c0.3,0.8,0.6,1,1.4,0.8c1.9-0.5,3.7-1,5.6-1.1
	c1-0.1,1.9-0.1,2.8,0.2c0.5,0.2,0.9,0.5,1,1.1c0.1,0.4,0.1,0.9,0.1,1.3c-0.2,0-0.2,0-0.3,0c-1.8,0-3.6,0-5.3,0.1
	c-1.7,0.1-3.3,0.5-4.8,1.2c-2.7,1.3-4,3.7-3.6,6.8c0.4,2.7,1.9,4.3,4.4,5.1c1.8,0.6,3.6,0.5,5.4,0.2c1.7-0.3,3.3-1,4.6-2.4
	c0,0,0,0,0.1,0c0,0.4,0,0.8,0,1.2c0,0.8,0.3,1,1,1c2,0,4.1,0,6.1,0c0.9,0,1.1-0.2,1.1-1.2c0-3.4,0-6.8,0-10.1
	C191.5,21.8,191.4,20.3,191.1,18.9L191.1,18.9z M178.8,29.3c-0.5-0.2-0.9-0.5-1-1.1c-0.1-0.6,0.1-1.2,0.6-1.5
	c0.6-0.4,1.3-0.6,2.1-0.7c0.8-0.1,1.5-0.1,2.3-0.1C183.2,28.5,181.1,30.2,178.8,29.3z"/>
<path class="st0" d="M128.4,11.4h-5.9c-1.5,0-1.7,0.3-1.9,1c0-0.1-3.5,9.7-3.5,9.7c-0.2-0.5-3.3-8.2-4.1-10.2
	c-0.1-0.3-0.4-0.5-0.7-0.5c-2.2,0-4.8,0-6.9,0c-0.9,0-1.1,0.3-0.8,1c0,0.1,0,0.1,0.1,0.1c3,6.3,5.6,12.7,8.5,19
	c0.1,0.2,0.1,0.4,0,0.6c-1.2,3.1-2,6.2-3.2,9.3c-0.3,0.8,0.1,1.2,1,1.2c1.8,0,3.6,0,5.5,0c0.3,0,0.6-0.1,0.8-0.3
	c0.2-0.2,0.4-0.5,0.5-0.7c1.9-4.8,3.8-9.7,5.8-14.5c2-5,4-9.9,6-14.9C129.8,11.6,129.3,11.3,128.4,11.4L128.4,11.4z"/>
<path class="st0" d="M90.7,11.5c-3,0.4-5.4,1.8-7.3,4c-2.2,2.6-3.2,5.6-2.9,9c0.3,2.8,1.6,5.2,3.8,7.1c2.3,2.1,5.1,3.3,8.3,3.4
	c3.5,0.1,6.7-0.6,9.8-2.2c0.8-0.4,0.9-0.8,0.4-1.5c-0.8-1.2-1.7-2.4-2.5-3.6c-0.4-0.6-0.8-0.7-1.5-0.4c-1.1,0.4-2.2,0.7-3.3,0.8
	c-1.6,0.1-3.1-0.1-4.4-0.9c-0.6-0.4-1.1-0.9-1.5-1.6h1.9c3.8,0,7.5,0,11.3,0c0.7,0,1-0.2,1.1-0.8c0.3-1.9,0.2-3.7-0.3-5.5
	C101.9,13.3,96.5,10.7,90.7,11.5L90.7,11.5z M89.1,20.3c0.2-1.5,1.5-3.2,3.4-3.3c1.9-0.1,3.3,1.2,3.8,3.3H89.1z"/>
<path class="st1" d="M191.3,44.2c-0.2-0.8-0.6-1.6-1.4-2.1c-0.5-0.3-1-0.5-1.5-0.5c-0.8-0.1-1.5,0.1-2.2,0.6
	c-0.2,0.2-0.4,0.4-0.7,0.5v-0.2c0-1.7,0-3.3,0-5c0-0.1,0-0.1,0-0.2c0-0.2-0.1-0.3-0.3-0.3c-0.1,0-0.1,0-0.2,0c-0.9,0-1.8,0-2.6,0
	c-0.1,0-0.1,0-0.2,0c-0.2,0-0.3,0.1-0.3,0.3c0,0.1,0,0.1,0,0.2c0,2,0,4,0,6c0,2.4,0,4.8,0,7.2c0,0.4,0.1,0.5,0.5,0.5h2.7
	c0.3,0,0.4-0.1,0.4-0.5c0-0.7,0-1.3,0-2c0-0.9,0-1.8,0-2.7c0-0.9,0.5-1.4,1.3-1.4c0.5,0,0.9,0.3,1,0.8c0,0.2,0.1,0.4,0.1,0.6
	c0,1.5,0,3.1,0,4.6c0,0.3,0.1,0.5,0.4,0.5c0.9,0,1.8,0,2.6,0c0.4,0,0.5-0.1,0.5-0.5c0-1.7,0-3.4,0-5
	C191.5,45.2,191.4,44.7,191.3,44.2L191.3,44.2z"/>
<path class="st1" d="M160.6,47.9c-0.1-0.2-0.2-0.3-0.4-0.2c-0.2,0.1-0.4,0.2-0.6,0.2c-0.4,0.1-0.7-0.1-0.8-0.5c0-0.1,0-0.2,0-0.2
	c0-0.6,0-1.2,0-1.9c0,0,0-0.1,0-0.1c0.6,0,1.3,0,1.9,0c0.3,0,0.4-0.1,0.4-0.4c0-0.9,0-1.7,0-2.6c0-0.3-0.1-0.4-0.4-0.4
	c-0.6,0-1.1,0-1.7,0h-0.2v-0.2c0-0.7,0-1.4,0-2.2c0-0.3-0.1-0.5-0.4-0.5c-0.7,0-1.5,0-2.2,0c-0.3,0-0.4,0.1-0.4,0.4
	c-0.1,0.5-0.2,1-0.2,1.5c0,0.3-0.1,0.6-0.1,0.9c-0.4,0-0.8,0-1.2,0c-0.3,0-0.4,0.1-0.4,0.5c0,0.8,0,1.7,0,2.5c0,0.3,0.1,0.5,0.4,0.5
	c0.3,0,0.7,0,1,0v0.2c0,0.8,0,1.5,0,2.3c0,0.4,0,0.7,0.1,1.1c0.2,0.9,0.6,1.6,1.3,2.1c0.5,0.4,1.1,0.5,1.7,0.6
	c1.1,0.1,2.2-0.1,3.2-0.7c0.3-0.2,0.3-0.3,0.2-0.6C161.3,49.4,161,48.6,160.6,47.9L160.6,47.9z"/>
<path class="st1" d="M166.1,41.6c-0.9,0.1-1.7,0.6-2.4,1.3c-1.1,1.2-1.6,2.5-1.4,4.1c0.1,1.2,0.6,2.1,1.4,3c0.9,0.9,1.9,1.4,3.1,1.4
	c1.3,0.1,2.5-0.2,3.7-0.9c0.3-0.2,0.3-0.3,0.2-0.6c-0.3-0.5-0.6-1-0.9-1.5c-0.2-0.3-0.3-0.3-0.6-0.2c-0.4,0.2-0.8,0.3-1.2,0.3
	c-0.6,0.1-1.2,0-1.7-0.4c-0.2-0.2-0.4-0.4-0.6-0.7h0.2c1.6,0,3.1,0,4.7,0c0.3,0,0.4-0.1,0.4-0.4c0.1-0.8,0.1-1.5-0.1-2.3
	C170.3,42.4,168.2,41.3,166.1,41.6L166.1,41.6z M165.5,45.3c0.1-0.6,0.5-1.3,1.2-1.4c0.7-0.1,1.3,0.5,1.5,1.4H165.5z"/>
<path class="st1" d="M179.6,48.6c-0.3-0.3-0.7-0.6-1-1c-0.2-0.1-0.2-0.1-0.4,0c-0.1,0.1-0.1,0.1-0.2,0.2c-0.5,0.4-1,0.6-1.6,0.4
	c-0.7-0.2-1.2-0.9-1.2-1.7c0-0.7,0.3-1.2,0.8-1.5c0.6-0.4,1.5-0.2,2,0.4c0.2,0.2,0.3,0.2,0.5,0c0.5-0.5,1-1,1.6-1.4
	c0.2-0.2,0.2-0.3,0.1-0.5c-0.2-0.3-0.4-0.6-0.7-0.8c-0.8-0.7-1.7-1-2.8-1c-0.4,0.1-0.7,0.1-1.1,0.2c-2.4,0.6-4,3-3.6,5.6
	c0.2,1.2,0.7,2.2,1.6,3c1.4,1.2,2.9,1.5,4.6,0.9c0.8-0.3,1.4-0.8,1.9-1.4c0.2-0.2,0.2-0.3,0-0.5C180,49,179.8,48.8,179.6,48.6z"/>
<path class="st0" d="M26.9,12V0L0.7,11.9C0.3,12.1,0,12.6,0,13v41.8c0,0.4,0.4,0.7,0.8,0.5l12.7-5.5c0.2-0.1,0.4-0.3,0.4-0.6V38
	l13.1-6V20l-13.1,5.9V18L26.9,12z"/>
<path class="st1" d="M26.9,0v12l14.5,6.3c0.2,0.1,0.4-0.1,0.4-0.2V6.6c0-0.1-0.1-0.2-0.2-0.2L26.9,0z"/>
<path class="st1" d="M26.9,32l14.5,6.3c0.2,0.1,0.4-0.1,0.4-0.2V26.6c0-0.1-0.1-0.2-0.2-0.2L26.9,20V32L26.9,32z"/>
</svg>
