<svg xmlns="http://www.w3.org/2000/svg" width="113" height="143" viewBox="0 0 113 143" fill="none"><path d="M85.3223 108.98C83.4248 108.832 81.6588 109.383 80.0498 110.521C79.4953 110.915 78.9761 111.37 78.4248 111.809C77.2293 110.101 75.7164 108.992 73.71 108.967C71.7613 108.941 70.0561 109.649 68.6298 111.293C68.6298 110.88 68.6298 110.543 68.6298 110.21C68.6266 109.569 68.4151 109.329 67.8446 109.329C66.1843 109.329 64.5241 109.329 62.8638 109.329C62.2708 109.329 62.0625 109.553 62.0625 110.22C62.0625 116.119 62.0625 122.018 62.0625 127.917C62.0625 128.587 62.2836 128.821 62.8862 128.821C64.601 128.821 66.3157 128.821 68.0305 128.821C68.7164 128.821 68.9087 128.603 68.9087 127.821C68.9087 124.774 68.9087 121.73 68.9087 118.682C68.9087 118.368 68.9247 118.054 68.9504 117.74C69.0657 116.346 69.8254 115.526 71.0593 115.452C72.1523 115.385 72.9664 115.997 73.2164 117.122C73.3094 117.538 73.335 117.984 73.3382 118.416C73.3478 121.544 73.3446 124.671 73.3446 127.799C73.3446 128.606 73.5369 128.818 74.2613 128.818C75.8575 128.818 77.4568 128.818 79.053 128.818C79.7261 128.818 79.9408 128.578 79.9408 127.815C79.9408 126.222 79.9408 124.627 79.9408 123.034C79.9408 121.348 79.9216 119.663 79.9536 117.977C79.9761 116.728 80.5979 115.504 82.0819 115.446C83.2581 115.401 84.0594 116.064 84.2838 117.365C84.3511 117.76 84.3703 118.17 84.3735 118.573C84.3799 121.691 84.3735 124.809 84.3799 127.924C84.3799 128.594 84.5883 128.818 85.178 128.818C86.9024 128.818 88.6236 128.818 90.3479 128.818C91.005 128.818 91.2229 128.578 91.2229 127.834C91.2229 124.383 91.2229 120.929 91.2229 117.478C91.2229 116.449 91.146 115.433 90.9377 114.43C90.255 111.126 88.3095 109.21 85.3223 108.976V108.98Z" fill="#FDFDFF"></path><path d="M16.7898 108.983C11.5622 108.983 6.3346 108.983 1.10701 108.983C0.456364 108.983 0.199951 109.239 0.199951 109.896C0.199951 118.041 0.199951 126.184 0.199951 134.329C0.199951 134.97 0.462771 135.23 1.09419 135.23C2.92432 135.23 4.75126 135.23 6.5814 135.23C7.35705 135.23 7.57499 135.009 7.57499 134.227C7.57499 131.872 7.57499 129.52 7.57499 127.164V126.77H9.45642C11.3987 126.77 13.3443 126.77 15.2866 126.77C16.0398 126.77 16.293 126.517 16.293 125.758C16.293 124.021 16.293 122.281 16.293 120.544C16.293 119.91 16.027 119.644 15.3988 119.644C12.9084 119.644 10.4212 119.644 7.93077 119.644H7.5782C7.5782 118.634 7.5782 117.67 7.5782 116.705C7.5782 116.449 7.70106 116.321 7.94679 116.321C10.8955 116.321 13.8443 116.321 16.793 116.321C17.4821 116.321 17.684 116.112 17.684 115.411C17.684 113.565 17.684 111.719 17.684 109.874C17.684 109.22 17.4372 108.979 16.793 108.979L16.7898 108.983Z" fill="#FDFDFF"></path><path d="M111.707 115.286C111.255 113.318 110.338 111.671 108.675 110.547C107.12 109.495 105.37 109.124 103.563 109.002C101.973 108.896 100.389 108.986 98.8189 109.29C97.3702 109.572 95.9567 109.986 94.6138 110.62C94.1426 110.841 94.0336 111.11 94.1747 111.63C94.2067 111.745 94.2452 111.857 94.2836 111.966C94.7163 113.174 95.149 114.382 95.5817 115.59C95.8157 116.244 96.1266 116.411 96.7805 116.231C98.3317 115.808 99.8927 115.427 101.498 115.292C102.303 115.225 103.104 115.225 103.883 115.491C104.309 115.635 104.643 115.904 104.732 116.375C104.8 116.728 104.79 117.099 104.816 117.503C104.688 117.503 104.63 117.503 104.575 117.503C103.082 117.513 101.588 117.478 100.098 117.548C98.7003 117.615 97.3381 117.933 96.0497 118.538C93.7644 119.612 92.6779 121.634 93.0497 124.204C93.3702 126.44 94.6779 127.796 96.7003 128.456C98.2035 128.949 99.7356 128.904 101.268 128.606C102.726 128.321 104.043 127.735 105.091 126.6C105.098 126.591 105.123 126.6 105.159 126.604C105.159 126.931 105.159 127.257 105.159 127.581C105.159 128.222 105.386 128.456 106.008 128.456C107.713 128.456 109.415 128.456 111.12 128.456C111.867 128.456 112.056 128.26 112.056 127.491C112.056 124.655 112.056 121.82 112.056 118.984C112.056 117.737 111.982 116.5 111.704 115.286H111.707ZM101.422 124.027C101.008 123.867 100.684 123.598 100.62 123.108C100.55 122.573 100.713 122.13 101.152 121.816C101.672 121.441 102.274 121.32 102.88 121.256C103.524 121.188 104.172 121.182 104.835 121.147C105.101 123.319 103.341 124.771 101.422 124.027Z" fill="#FDFDFF"></path><path d="M59.1715 108.992H54.2131C52.9951 108.957 52.7708 109.242 52.6169 109.803C52.6041 109.758 49.7099 117.951 49.7099 117.951C49.5464 117.538 46.9118 111.1 46.2803 109.376C46.1874 109.123 45.947 108.957 45.6778 108.957C43.8444 108.957 41.6169 108.966 39.8572 108.966C39.0976 108.966 38.9213 109.206 39.2098 109.844C39.229 109.886 39.2483 109.927 39.2675 109.969C41.7451 115.288 43.9502 120.608 46.4342 125.924C46.5143 126.097 46.5175 126.238 46.4502 126.414C45.4694 129.006 44.7707 131.602 43.7964 134.197C43.5528 134.851 43.8476 135.229 44.6009 135.229C46.1297 135.229 47.6554 135.239 49.1842 135.22C49.4086 135.22 49.6778 135.111 49.8445 134.973C50.024 134.822 50.1426 134.588 50.2323 134.371C51.8509 130.317 53.4567 126.257 55.0753 122.203C56.7355 118.038 58.4086 113.875 60.0753 109.71C60.2933 109.165 59.9407 108.957 59.1779 108.992H59.1715Z" fill="#FDFDFF"></path><path d="M27.591 109.075C25.0942 109.421 23.0654 110.61 21.4949 112.446C19.6166 114.641 18.7769 117.157 19.1006 119.957C19.3698 122.293 20.4724 124.283 22.2705 125.924C24.2128 127.699 26.5462 128.702 29.2641 128.811C32.1648 128.926 34.9052 128.318 37.4437 126.972C38.0975 126.626 38.1937 126.305 37.7834 125.716C37.0783 124.697 36.3667 123.681 35.6584 122.668C35.293 122.149 35.0142 122.059 34.3892 122.3C33.4981 122.643 32.5783 122.864 31.6135 122.947C30.2802 123.059 29.0173 122.905 27.8955 122.168C27.3763 121.829 26.9372 121.422 26.6199 120.832H28.184C31.3411 120.832 34.4981 120.832 37.6552 120.832C38.2546 120.832 38.5302 120.64 38.6007 120.153C38.8187 118.599 38.7738 117.054 38.3475 115.535C36.9597 110.594 32.4244 108.409 27.591 109.078V109.075ZM26.2513 116.506C26.4308 115.276 27.5237 113.831 29.1007 113.77C30.7353 113.706 31.8539 114.785 32.2577 116.506H26.2513Z" fill="#FDFDFF"></path><path d="M111.909 136.476C111.727 135.765 111.39 135.162 110.775 134.755C110.384 134.496 109.948 134.374 109.486 134.339C108.832 134.291 108.214 134.409 107.669 134.813C107.483 134.951 107.31 135.111 107.118 135.274V135.114C107.118 133.723 107.118 132.333 107.118 130.942C107.118 130.881 107.118 130.817 107.111 130.756C107.098 130.625 107.015 130.538 106.89 130.516C106.832 130.506 106.771 130.503 106.71 130.503C105.97 130.503 105.233 130.503 104.493 130.503C104.444 130.503 104.396 130.503 104.348 130.513C104.172 130.535 104.095 130.618 104.085 130.804C104.085 130.859 104.085 130.913 104.085 130.964C104.085 132.637 104.085 134.31 104.085 135.982C104.085 138.004 104.085 140.023 104.085 142.045C104.085 142.369 104.162 142.449 104.476 142.449H106.739C107.031 142.449 107.114 142.362 107.114 142.055C107.114 141.504 107.114 140.952 107.114 140.398C107.114 139.642 107.111 138.889 107.114 138.133C107.121 137.38 107.512 136.969 108.191 136.995C108.611 137.011 108.925 137.261 109.021 137.684C109.06 137.854 109.073 138.036 109.073 138.213C109.076 139.494 109.073 140.776 109.073 142.061C109.073 142.353 109.166 142.452 109.444 142.452C110.185 142.452 110.922 142.452 111.662 142.452C111.961 142.452 112.05 142.362 112.05 142.055C112.05 140.648 112.05 139.241 112.05 137.835C112.05 137.376 112.015 136.925 111.9 136.479L111.909 136.476Z" fill="#DC9C2E"></path><path d="M86.1717 139.581C86.0788 139.376 86.0083 139.357 85.7999 139.437C85.6365 139.501 85.4698 139.565 85.2999 139.597C84.9634 139.664 84.7294 139.514 84.6685 139.209C84.6557 139.145 84.6557 139.078 84.6557 139.011C84.6557 138.491 84.6557 137.972 84.6557 137.453C84.6557 137.418 84.6621 137.383 84.6653 137.341C85.1974 137.341 85.7134 137.341 86.2326 137.341C86.4698 137.341 86.5788 137.229 86.5788 136.982C86.5788 136.268 86.5788 135.553 86.5788 134.842C86.5788 134.592 86.4634 134.476 86.2262 134.476C85.7454 134.476 85.2679 134.476 84.7871 134.476H84.6525V134.31C84.6525 133.707 84.6525 133.105 84.6525 132.506C84.6525 132.224 84.5531 132.118 84.2871 132.115C83.6749 132.115 83.0659 132.115 82.4538 132.115C82.223 132.115 82.1333 132.192 82.0948 132.426C82.0275 132.845 81.9666 133.268 81.9025 133.688C81.864 133.948 81.8223 134.207 81.7807 134.473C81.4313 134.473 81.0916 134.473 80.7518 134.473C80.4954 134.473 80.3896 134.579 80.3896 134.851C80.3896 135.553 80.3896 136.255 80.3896 136.957C80.3896 137.232 80.4922 137.338 80.7614 137.341C81.0403 137.341 81.3191 137.341 81.614 137.341V137.495C81.614 138.129 81.6076 138.764 81.6172 139.402C81.6236 139.703 81.6397 140.007 81.6909 140.305C81.8223 141.052 82.1525 141.677 82.7775 142.106C83.207 142.401 83.6877 142.535 84.1942 142.58C85.1461 142.664 86.0435 142.484 86.8737 141.981C87.1012 141.843 87.1397 141.725 87.0307 141.481C86.7455 140.847 86.457 140.215 86.1685 139.584L86.1717 139.581Z" fill="#DC9C2E"></path><path d="M90.7461 134.364C89.9736 134.48 89.3069 134.848 88.7621 135.428C87.8518 136.393 87.4383 137.556 87.5698 138.898C87.6627 139.869 88.0794 140.693 88.746 141.379C89.4736 142.122 90.3518 142.545 91.3711 142.59C92.4576 142.638 93.4833 142.385 94.432 141.824C94.6788 141.68 94.714 141.545 94.5602 141.302C94.2974 140.879 94.0313 140.452 93.7653 140.029C93.6275 139.812 93.5249 139.773 93.2909 139.876C92.9576 140.02 92.6115 140.113 92.2525 140.145C91.7525 140.193 91.2813 140.129 90.8614 139.821C90.6659 139.68 90.5025 139.51 90.3807 139.264H90.5473C91.8647 139.264 93.182 139.264 94.5025 139.264C94.7429 139.264 94.8454 139.184 94.8711 138.969C94.9512 138.325 94.9352 137.687 94.7749 137.056C94.2589 135.002 92.5634 134.089 90.7493 134.361L90.7461 134.364ZM90.2396 137.463C90.3134 136.957 90.698 136.37 91.2749 136.322C91.8647 136.274 92.3486 136.719 92.4961 137.463H90.2396Z" fill="#DC9C2E"></path><path d="M102.101 140.187C101.823 139.921 101.544 139.655 101.262 139.389C101.133 139.267 101.06 139.267 100.932 139.389C100.877 139.44 100.826 139.491 100.771 139.539C100.387 139.866 99.9571 140.007 99.4667 139.869C98.8674 139.7 98.4764 139.104 98.502 138.421C98.5212 137.876 98.7296 137.44 99.1911 137.165C99.7232 136.848 100.422 136.973 100.906 137.46C101.076 137.633 101.127 137.63 101.306 137.463C101.746 137.059 102.185 136.655 102.627 136.252C102.79 136.101 102.826 135.979 102.694 135.8C102.521 135.569 102.339 135.338 102.127 135.149C101.464 134.569 100.678 134.319 99.8129 134.291C99.5148 134.335 99.2103 134.358 98.9155 134.428C96.8994 134.903 95.5468 136.928 95.8834 139.116C96.0372 140.113 96.4827 140.962 97.236 141.603C98.3898 142.587 99.6911 142.853 101.111 142.353C101.752 142.125 102.281 141.718 102.681 141.142C102.826 140.936 102.816 140.866 102.64 140.699C102.46 140.529 102.281 140.356 102.101 140.187Z" fill="#DC9C2E"></path><path d="M66.3351 20.9646V0.200195L21.088 20.7948C20.354 21.128 19.8796 21.8618 19.8796 22.6693V94.8994C19.8796 95.5851 20.5816 96.0465 21.2098 95.7741L43.0625 86.3116C43.4631 86.1386 43.7259 85.7412 43.7259 85.3022V65.7715L66.3351 55.4566V34.6922L43.7259 44.9334V31.2795L66.3351 20.9646Z" fill="#FDFDFF"></path><path d="M66.335 0.200195V20.9806L91.412 31.773C91.7069 31.898 92.0338 31.6833 92.0338 31.3628V11.5533C92.0338 11.3739 91.9281 11.2137 91.7646 11.1432L66.335 0.200195Z" fill="#DC9C2E"></path><path d="M66.335 55.4728L91.412 66.2652C91.7069 66.3934 92.0338 66.1755 92.0338 65.855V46.0455C92.0338 45.8661 91.9281 45.7059 91.7646 45.6354L66.335 34.6924V55.4696V55.4728Z" fill="#DC9C2E"></path></svg>